<?xml version="1.0" encoding="utf-8"?>
<!-- Generator: Adobe Illustrator 24.3.0, SVG Export Plug-In . SVG Version: 6.00 Build 0)  -->
<svg version="1.1" id="Layer_1" xmlns="http://www.w3.org/2000/svg" xmlns:xlink="http://www.w3.org/1999/xlink" x="0px" y="0px"
	 viewBox="0 0 512 512" style="enable-background:new 0 0 512 512;" xml:space="preserve">
<style type="text/css">
	.st0{fill:#168EA7;}
	.st1{fill:#5B707F;}
	.st2{fill:#394955;}
</style>
<path class="st0" d="M234.41,342.86c-6.95-2.14-14.99-3.86-22.39-7.06c-10.68-4.63-21.33-9.62-31.21-15.73
	c-16.22-10.04-27.29-24.8-31.34-43.4c-3.69-16.94-2.31-33.92,3.74-50.65c6.38-17.62,17.18-32.41,27.5-47.61
	c8.65-12.74,15.05-26.53,17.73-41.71c1.06-5.99,0.17-12.31,0.17-19.09c7.89,6.31,11.67,14.31,14.75,23.6
	c10.94-13.98,16.08-29.87,18.36-46.89c2.32-17.32-0.17-34.25-4.96-51.59c12.69,7.02,23.55,15.35,33.23,25.07
	c10.39,10.43,18.86,22.32,23.62,36.42c5.24,15.54,5.01,31.46,2.09,47.37c-0.85,4.63-2.69,9.07-4.07,13.58
	c12.27-7.51,22.73-27.35,20.02-46.86c4.12,5.84,8.56,11.49,12.3,17.57c5.56,9.05,11.21,18.27,12.82,28.96
	c1.21,8.06,1.93,16.35,1.48,24.46c-0.32,5.83-2.43,11.73-4.61,17.26c-2.15,5.46-5.38,10.5-8.34,16.1
	c16-7.96,25.75-20.47,30.36-38.93c2.7,5.25,5.63,9.41,7.06,14.03c6.65,21.43,11.03,43.02,7.56,65.84
	c-4.07,26.81-19.66,44.75-41.56,58.57c-16.46,10.39-34.49,17.03-53.15,22.08c-4.01,1.08-8.23,1.41-12.36,2
	c-0.68,0.1-1.53-0.1-2.14-0.45c-5.76-3.32-17.89-18.59-20.63-26.12c6.15-1.73,12.32-3.3,18.38-5.21
	c18.43-5.82,31.97-17.46,40.65-34.72c8.98-17.84,10.37-36.89,7.34-56.12c-2.64-16.79-8.66-32.66-17.33-47.51
	c-7.54,4.89-15.05,9.93-22.72,14.71c-10.27,6.39-21.17,11.91-30.9,19.03c-14.47,10.59-26.28,23.69-32.21,41.2
	c-3.62,10.69-4.56,21.65-2.3,32.6c2.36,11.41,6.72,22.24,14.83,30.87C215.42,324.35,225.19,333.65,234.41,342.86z"/>
<path class="st1" d="M126.08,275.49c-4.2,1.55-8.46,2.99-12.61,4.68c-19.22,7.84-37.78,16.63-51.76,32.85
	c-29.49,34.21,18.56,57.94,45.92,67.92c42.71,15.59,88.07,21.25,133.33,22.73c61.62,2.02,126.88-5.45,181.15-36.77
	c14.67-8.47,29.51-21.54,29.4-38.48c-0.22-32.08-45.87-44.11-68.76-54.8c27.31,2.36,53.89,12.66,75.66,29.31
	c25,19.12,31.75,46.58,8.11,70.53c-24.07,24.39-61.24,35.49-93.52,43.46c-94.16,23.24-205.7,22.14-295.95-16.47
	c-32.56-13.93-75.72-48.36-44.65-84.9c20.21-23.76,55.49-35.5,84.84-42.73c2.65-0.65,5.67,0.23,8.52,0.4
	C125.88,273.99,125.98,274.74,126.08,275.49z"/>
<g>
	<path class="st0" d="M23.65,395.64l-8.55,12.76l-6.22-4.17l17.39-25.95l4.85,3.25l0.25,19.29l8.84-13.19l6.22,4.17l-17.39,25.95
		l-4.95-3.31L23.65,395.64z"/>
	<path class="st0" d="M54.87,395.86l7.53,3.67l-5.9,31.88l-6.84-3.34l1.42-6.11l-6.92-3.38l-3.95,4.88l-6.87-3.35L54.87,395.86z
		 M52.4,416.25l2.55-11l-7.1,8.77L52.4,416.25z"/>
	<path class="st0" d="M86.02,417.53l-7.27-2.93l-8.88,22.04l-6.95-2.8l8.88-22.04l-7.3-2.94l2.79-6.94l21.52,8.67L86.02,417.53z"/>
	<path class="st0" d="M92.22,444.83c-2.07-0.67-3.72-1.64-4.96-2.9c-1.23-1.26-2.1-2.73-2.59-4.4c-0.5-1.67-0.68-3.46-0.54-5.37
		c0.13-1.91,0.52-3.84,1.15-5.79l4.94-15.26l7.13,2.31l-4.94,15.25c-0.32,0.98-0.53,1.94-0.65,2.88c-0.12,0.95-0.11,1.83,0.03,2.64
		c0.14,0.82,0.43,1.52,0.87,2.11c0.44,0.59,1.08,1.02,1.91,1.29c0.85,0.28,1.64,0.31,2.35,0.09c0.72-0.21,1.36-0.62,1.95-1.22
		c0.58-0.6,1.1-1.31,1.56-2.15c0.46-0.84,0.84-1.73,1.15-2.67l4.94-15.25l7.13,2.31l-4.94,15.26c-0.67,2.06-1.53,3.91-2.58,5.54
		c-1.05,1.63-2.27,2.96-3.65,3.99c-1.38,1.03-2.93,1.68-4.65,1.94C96.1,445.68,94.24,445.48,92.22,444.83z"/>
	<path class="st0" d="M109.38,449.89l7.64-30.29l12.14,3.06c1.29,0.32,2.41,0.92,3.35,1.8c0.94,0.87,1.68,1.91,2.22,3.12
		c0.54,1.21,0.87,2.5,0.99,3.86c0.12,1.36,0.02,2.68-0.31,3.96c-0.29,1.17-0.73,2.25-1.3,3.26c-0.57,1.01-1.25,1.88-2.05,2.64
		c-0.8,0.75-1.68,1.36-2.63,1.81l2.78,12.54l-7.97-2.01l-2.31-10.47l-2.94-0.74l-2.34,9.3L109.38,449.89z M120.81,435.16l4.58,1.16
		c0.3,0.07,0.62,0.02,0.95-0.17c0.34-0.19,0.66-0.5,0.97-0.94c0.31-0.44,0.55-1,0.72-1.68c0.18-0.71,0.22-1.33,0.13-1.85
		c-0.09-0.52-0.26-0.95-0.51-1.28c-0.25-0.33-0.52-0.54-0.82-0.61l-4.4-1.11L120.81,435.16z"/>
	<path class="st0" d="M156.06,452.67l-1.44,7.34l-19.07-3.74l6.01-30.65l18.74,3.67l-1.44,7.34l-11.38-2.23l-0.85,4.32l9.73,1.91
		l-1.34,6.82l-9.73-1.91l-0.95,4.84L156.06,452.67z"/>
	<path class="st0" d="M179.98,463.97c-2.06-0.26-3.87-0.95-5.43-2.05c-1.56-1.1-2.85-2.48-3.86-4.13c-1.01-1.65-1.72-3.46-2.13-5.42
		s-0.48-3.94-0.22-5.95c0.27-2.07,0.86-3.99,1.79-5.76c0.93-1.77,2.1-3.32,3.52-4.63c1.42-1.31,3.03-2.28,4.83-2.91
		c1.8-0.63,3.7-0.81,5.71-0.55c2.06,0.26,3.87,0.95,5.43,2.05c1.56,1.1,2.84,2.49,3.84,4.15c1,1.67,1.7,3.48,2.11,5.44
		c0.41,1.96,0.48,3.93,0.23,5.91c-0.26,2.04-0.85,3.94-1.76,5.72c-0.91,1.77-2.08,3.32-3.5,4.63c-1.42,1.31-3.02,2.29-4.81,2.93
		C183.93,464.04,182.02,464.23,179.98,463.97z M175.87,447.47c-0.13,1.05-0.14,2.08-0.01,3.08c0.13,1.01,0.4,1.93,0.81,2.77
		c0.41,0.84,0.97,1.53,1.69,2.08c0.72,0.55,1.61,0.89,2.68,1.03c1.07,0.14,2.02,0.02,2.87-0.34c0.85-0.36,1.57-0.91,2.17-1.65
		c0.6-0.74,1.08-1.58,1.45-2.52c0.37-0.94,0.62-1.92,0.75-2.94c0.13-1.05,0.14-2.07,0.01-3.06c-0.13-0.99-0.4-1.91-0.81-2.74
		c-0.41-0.84-0.98-1.52-1.71-2.06c-0.73-0.54-1.62-0.87-2.66-1.01c-1.07-0.14-2.02-0.02-2.85,0.34c-0.83,0.37-1.56,0.9-2.16,1.61
		c-0.61,0.71-1.09,1.53-1.46,2.47C176.25,445.47,176,446.45,175.87,447.47z"/>
	<path class="st0" d="M197.82,465.86l2.63-31.13l12.48,1.05c1.33,0.11,2.53,0.52,3.6,1.23c1.07,0.71,1.97,1.62,2.7,2.72
		c0.73,1.11,1.26,2.32,1.6,3.65c0.34,1.32,0.45,2.64,0.34,3.96c-0.1,1.2-0.35,2.34-0.75,3.42c-0.4,1.09-0.93,2.06-1.6,2.93
		c-0.67,0.87-1.43,1.61-2.31,2.21l4.78,11.93l-8.19-0.69l-3.98-9.96l-3.02-0.26l-0.81,9.56L197.82,465.86z M206.72,449.48l4.71,0.4
		c0.31,0.03,0.61-0.08,0.91-0.32c0.3-0.24,0.57-0.6,0.8-1.08c0.23-0.48,0.38-1.07,0.44-1.77c0.06-0.73,0-1.35-0.17-1.85
		c-0.18-0.5-0.41-0.9-0.71-1.19c-0.3-0.29-0.6-0.45-0.9-0.47l-4.52-0.38L206.72,449.48z"/>
	<path class="st0" d="M235.55,468.78c-1.76-0.09-3.43-0.53-4.99-1.32c-1.56-0.79-2.93-1.92-4.09-3.37s-2.05-3.18-2.65-5.19
		c-0.61-2.01-0.85-4.29-0.73-6.84c0.11-2.2,0.56-4.22,1.37-6.06c0.81-1.84,1.88-3.44,3.21-4.8c1.33-1.36,2.87-2.39,4.59-3.1
		c1.73-0.71,3.57-1.02,5.54-0.92c2.46,0.12,4.65,0.83,6.59,2.15c1.94,1.31,3.34,3.05,4.21,5.2l-5.8,4.61
		c-0.48-1.26-1.24-2.28-2.27-3.08c-1.04-0.8-2.16-1.23-3.36-1.29c-0.9-0.04-1.72,0.12-2.49,0.5c-0.76,0.38-1.44,0.92-2.02,1.62
		c-0.59,0.71-1.05,1.56-1.39,2.55c-0.34,1-0.54,2.1-0.6,3.3c-0.06,1.23,0.04,2.35,0.3,3.36c0.26,1.01,0.65,1.89,1.16,2.63
		c0.52,0.74,1.15,1.33,1.9,1.76c0.75,0.43,1.6,0.67,2.54,0.72c1.2,0.06,2.37-0.23,3.5-0.87c1.13-0.64,2.18-1.56,3.13-2.78l-0.4,8.35
		C240.65,467.95,238.24,468.91,235.55,468.78z M242.78,458.42l-5.03-0.24l0.3-6.15l11.2,0.54l-0.8,16.61l-6.18-0.3L242.78,458.42z"
		/>
	<path class="st0" d="M259.38,438.05l8.37,0.03l8.56,31.27l-7.61-0.03l-1.39-6.12l-7.71-0.03l-1.43,6.11l-7.64-0.03L259.38,438.05z
		 M266.03,457.47l-2.49-11.01l-2.58,10.99L266.03,457.47z"/>
	<path class="st0" d="M286.31,453.58l0.72,15.34l-7.48,0.35l-1.47-31.2l5.83-0.27l11.68,15.35l-0.75-15.87l7.48-0.35l1.47,31.2
		l-5.95,0.28L286.31,453.58z"/>
	<path class="st0" d="M309.26,467.59l-2.8-31.11l7.46-0.67l2.8,31.11L309.26,467.59z"/>
	<path class="st0" d="M318.62,450.88c-0.25-1.89-0.19-3.78,0.19-5.69c0.38-1.9,1.06-3.67,2.06-5.31c0.99-1.64,2.29-3.02,3.88-4.14
		c1.59-1.12,3.47-1.82,5.63-2.11c2.59-0.35,4.93-0.03,7.03,0.94c2.1,0.98,3.75,2.42,4.96,4.33l-5.05,5.39
		c-0.47-0.97-1.05-1.69-1.74-2.16c-0.7-0.47-1.42-0.76-2.17-0.88c-0.75-0.12-1.47-0.14-2.16-0.04c-1.07,0.14-1.95,0.51-2.66,1.09
		c-0.71,0.58-1.26,1.3-1.65,2.15c-0.39,0.85-0.64,1.77-0.75,2.76c-0.11,0.99-0.1,1.97,0.02,2.93c0.14,1.08,0.42,2.09,0.84,3.04
		c0.41,0.95,0.94,1.78,1.57,2.47c0.64,0.7,1.37,1.21,2.2,1.55c0.83,0.33,1.73,0.43,2.7,0.3c0.68-0.09,1.37-0.31,2.04-0.65
		c0.68-0.34,1.27-0.83,1.78-1.46c0.51-0.63,0.85-1.43,1.03-2.4l6.61,3.33c-0.33,1.58-1.04,3-2.14,4.24c-1.1,1.24-2.4,2.25-3.89,3.03
		c-1.5,0.78-3.02,1.27-4.57,1.48c-2.01,0.27-3.9,0.06-5.69-0.63c-1.79-0.69-3.38-1.72-4.79-3.08c-1.41-1.36-2.57-2.95-3.49-4.77
		C319.47,454.75,318.88,452.85,318.62,450.88z"/>
	<path class="st0" d="M375.94,449.38l1.62,7.3l-18.98,4.21l-6.76-30.5l18.64-4.13l1.62,7.3l-11.33,2.51l0.95,4.3l9.68-2.15
		l1.51,6.79l-9.68,2.15l1.07,4.81L375.94,449.38z"/>
	<path class="st0" d="M385.09,438.66l4.42,14.7l-7.17,2.16l-9-29.91l5.59-1.68l15.06,12.06l-4.57-15.21l7.17-2.16l9,29.91l-5.7,1.71
		L385.09,438.66z"/>
	<path class="st0" d="M426.82,432.35l2.72,6.97l-18.1,7.08l-11.38-29.09l17.78-6.95l2.72,6.97l-10.81,4.23l1.6,4.1l9.23-3.61
		l2.53,6.47l-9.23,3.61l1.79,4.59L426.82,432.35z"/>
	<path class="st0" d="M434.17,437.31l-13.7-28.07l11.25-5.49c1.2-0.58,2.44-0.85,3.72-0.79c1.28,0.06,2.52,0.38,3.71,0.95
		c1.19,0.58,2.27,1.35,3.24,2.31c0.97,0.96,1.74,2.04,2.32,3.22c0.53,1.08,0.9,2.19,1.11,3.33c0.21,1.14,0.26,2.25,0.13,3.34
		c-0.12,1.09-0.41,2.12-0.85,3.08l10.22,7.79l-7.39,3.61l-8.52-6.51l-2.73,1.33l4.21,8.62L434.17,437.31z M433.41,418.68l4.25-2.07
		c0.28-0.14,0.48-0.38,0.62-0.74c0.14-0.36,0.18-0.81,0.14-1.34c-0.05-0.53-0.22-1.11-0.53-1.75c-0.32-0.66-0.69-1.16-1.09-1.5
		c-0.41-0.34-0.81-0.56-1.22-0.66c-0.4-0.1-0.74-0.08-1.02,0.06l-4.07,1.99L433.41,418.68z"/>
	<path class="st0" d="M469.16,418.96c-1.51,0.92-3.13,1.5-4.87,1.72c-1.74,0.22-3.5,0.06-5.27-0.49c-1.78-0.55-3.48-1.48-5.11-2.8
		c-1.63-1.32-3.12-3.07-4.45-5.25c-1.15-1.88-1.91-3.8-2.27-5.78c-0.37-1.97-0.38-3.9-0.04-5.78c0.34-1.87,1.02-3.59,2.05-5.15
		c1.03-1.56,2.38-2.85,4.07-3.88c2.1-1.28,4.32-1.93,6.65-1.93c2.34,0,4.47,0.64,6.41,1.93l-2.2,7.07c-1.1-0.77-2.31-1.19-3.61-1.27
		c-1.31-0.08-2.48,0.2-3.5,0.83c-0.76,0.47-1.36,1.07-1.78,1.81c-0.42,0.74-0.67,1.56-0.76,2.48c-0.09,0.91,0.01,1.88,0.28,2.89
		c0.28,1.02,0.73,2.04,1.36,3.06c0.64,1.05,1.36,1.92,2.14,2.61s1.6,1.2,2.44,1.52c0.84,0.33,1.7,0.46,2.56,0.39
		c0.86-0.06,1.7-0.34,2.51-0.84c1.03-0.63,1.83-1.52,2.41-2.69c0.58-1.16,0.92-2.52,1.03-4.06l4.36,7.13
		C472.91,415.41,471.45,417.56,469.16,418.96z M469.31,406.34l-4.29,2.63l-3.22-5.25l9.57-5.85l8.68,14.19l-5.28,3.23L469.31,406.34
		z"/>
	<path class="st0" d="M468.44,381.68l12.1,6.33l-4.71-12.87l6.1-5.39l6.79,21.89l6.85,7.75l-5.58,4.93l-6.9-7.81l-20.72-9.46
		L468.44,381.68z"/>
</g>
<path class="st0" d="M132.32,291.37c-0.22-0.79-28.52,17.22-30.81,19.86c-10,11.53-8.69,26.12,2.75,36.45
	c6.35,5.72,14.39,9.15,22.4,12.15c71.26,26.71,151.02,26.99,224.56,7.39c18.65-4.97,56.3-16.38,57.57-40.39
	c0.39-7.29-3.72-14.24-9.21-19.04c-3.41-2.98-28.17-12.34-26.13-18.4c0.57-1.7,3.62-3.66,5.53-3.59c3.6,0.13,7.26,1.32,10.69,2.61
	c12.54,4.72,26.18,11,35.97,20.34c6.53,6.24,11.3,14.92,10.72,23.93c-0.73,11.37-9.53,20.54-18.81,27.16
	c-17.52,12.5-38.28,19.66-59.14,24.95c-47.95,12.17-97.93,15.19-147.16,11.19c-28.06-2.28-56.43-5.02-83.5-13.16
	c-21.02-6.32-62.37-20.48-61.37-48.05c0.93-25.54,37.44-39.06,57.51-45.23c2.41-0.74,5.25-0.1,7.89-0.1
	C131.96,290.09,132.14,290.73,132.32,291.37z"/>
<path class="st2" d="M227.26,308.23c2.68-28.36,15.28-51.71,32.38-73.19c-21.85,16.9-39.69,36.48-44.66,66.27
	c-1.12-3.18-1.9-5.53-2.77-7.85c-8.87-23.83-4.4-41.34,13.41-58.61c10.95-10.62,24.26-17.81,37.65-24.81
	c3.49-1.83,7.07-3.49,10.61-5.23C288.65,242.71,281.43,287.76,227.26,308.23z M261.42,233.02c0.67-0.29,1.34-0.58,2-0.87
	c0.57-0.31,1.13-0.61,1.7-0.92c-0.32-0.24-0.64-0.48-0.96-0.72c-0.22,0.57-0.44,1.15-0.67,1.72c-0.66,0.28-1.31,0.56-1.97,0.85
	c-0.4,0.44-0.81,0.88-1.21,1.32c0.24,0.11,0.48,0.22,0.71,0.32C261.15,234.15,261.28,233.59,261.42,233.02z"/>
<path class="st1" d="M17.37,358.35"/>
</svg>
